<svg version="1.1" viewBox="0.0 0.0 960.0 720.0" fill="none" stroke="none" stroke-linecap="square" stroke-miterlimit="10" xmlns:xlink="http://www.w3.org/1999/xlink" xmlns="http://www.w3.org/2000/svg"><clipPath id="p.0"><path d="m0 0l960.0 0l0 720.0l-960.0 0l0 -720.0z" clip-rule="nonzero"/></clipPath><g clip-path="url(#p.0)"><path fill="#000000" fill-opacity="0.0" d="m0 0l960.0 0l0 720.0l-960.0 0z" fill-rule="evenodd"/><g filter="url(#shadowFilter-p.1)"><use xlink:href="#p.1" transform="matrix(1.0 0.0 0.0 1.0 0.0 2.0)"/></g><defs><filter id="shadowFilter-p.1" filterUnits="userSpaceOnUse"><feGaussianBlur in="SourceAlpha" stdDeviation="2.0" result="blur"/><feComponentTransfer in="blur" color-interpolation-filters="sRGB"><feFuncR type="linear" slope="0" intercept="0.0"/><feFuncG type="linear" slope="0" intercept="0.0"/><feFuncB type="linear" slope="0" intercept="0.0"/><feFuncA type="linear" slope="0.5" intercept="0"/></feComponentTransfer></filter></defs><g id="p.1"><path fill="#0000ff" d="m53.102985 43.671917l144.47244 0l0 40.40945l-144.47244 0z" fill-rule="evenodd"/><path stroke="#000000" stroke-width="2.0" stroke-linejoin="round" stroke-linecap="butt" d="m53.102985 43.671917l144.47244 0l0 40.40945l-144.47244 0z" fill-rule="evenodd"/><path fill="#ffffff" d="m74.666 69.31191l0 -12.296871l2.5 0l0 10.203121l6.234375 0l0 2.09375l-8.734375 0zm15.709717 -2.859375l2.359375 0.390625q-0.453125 1.3125 -1.4375 2.0q-0.984375 0.671875 -2.46875 0.671875q-2.34375 0 -3.46875 -1.53125q-0.890625 -1.234375 -0.890625 -3.09375q0 -2.2343712 1.171875 -3.4999962q1.171875 -1.265625 2.953125 -1.265625q2.0 0 3.15625 1.328125q1.171875 1.3125 1.109375 4.046871l-5.953125 0q0.03125 1.0625 0.578125 1.65625q0.546875 0.578125 1.375 0.578125q0.546875 0 0.921875 -0.296875q0.390625 -0.3125 0.59375 -0.984375zm0.125 -2.40625q-0.015625 -1.0312462 -0.53125 -1.5624962q-0.5 -0.546875 -1.234375 -0.546875q-0.78125 0 -1.28125 0.578125q-0.515625 0.5625 -0.5 1.5312462l3.546875 0zm6.074585 -0.9843712l-2.15625 -0.390625q0.375 -1.296875 1.25 -1.921875q0.890625 -0.625 2.640625 -0.625q1.59375 0 2.375 0.375q0.78125 0.375 1.09375 0.953125q0.3125 0.578125 0.3125 2.125l-0.015625 2.7812462q0 1.1875 0.109375 1.75q0.109375 0.5625 0.421875 1.203125l-2.34375 0q-0.09375 -0.234375 -0.234375 -0.703125q-0.0625 -0.203125 -0.078125 -0.28125q-0.609375 0.59375 -1.3125 0.890625q-0.6875 0.296875 -1.46875 0.296875q-1.390625 0 -2.1875 -0.75q-0.796875 -0.75 -0.796875 -1.90625q0 -0.765625 0.359375 -1.359375q0.359375 -0.59375 1.015625 -0.90625q0.65625 -0.328125 1.890625 -0.5625q1.671875 -0.3124962 2.3125 -0.5781212l0 -0.234375q0 -0.6875 -0.34375 -0.984375q-0.328125 -0.296875 -1.28125 -0.296875q-0.625 0 -0.984375 0.25q-0.359375 0.25 -0.578125 0.875zm3.1875 1.9374962q-0.453125 0.15625 -1.453125 0.375q-0.984375 0.203125 -1.296875 0.40625q-0.453125 0.328125 -0.453125 0.828125q0 0.5 0.359375 0.875q0.375 0.359375 0.953125 0.359375q0.640625 0 1.234375 -0.421875q0.421875 -0.328125 0.5625 -0.796875q0.09375 -0.296875 0.09375 -1.15625l0 -0.46875zm12.918335 4.3125l-2.203125 0l0 -1.3125q-0.5625 0.765625 -1.3125 1.140625q-0.734375 0.375 -1.5 0.375q-1.546875 0 -2.65625 -1.25q-1.109375 -1.25 -1.109375 -3.484375q0 -2.2812462 1.078125 -3.4687462q1.078125 -1.1875 2.71875 -1.1875q1.5 0 2.609375 1.25l0 -4.46875l2.375 0l0 12.406246zm-6.34375 -4.6875q0 1.4375 0.390625 2.078125q0.578125 0.9375 1.609375 0.9375q0.828125 0 1.390625 -0.703125q0.578125 -0.703125 0.578125 -2.078125q0 -1.5468712 -0.5625 -2.2343712q-0.546875 -0.6875 -1.421875 -0.6875q-0.84375 0 -1.421875 0.671875q-0.5625 0.671875 -0.5625 2.0156212zm12.883408 0.65625l2.4375 -0.234375q0.21875 1.21875 0.890625 1.796875q0.671875 0.578125 1.8125 0.578125q1.21875 0 1.828125 -0.515625q0.609375 -0.515625 0.609375 -1.203125q0 -0.4375 -0.265625 -0.734375q-0.25 -0.3125 -0.890625 -0.546875q-0.4375 -0.15625 -2.0 -0.5468712q-2.015625 -0.5 -2.828125 -1.21875q-1.140625 -1.03125 -1.140625 -2.5q0 -0.953125 0.53125 -1.765625q0.546875 -0.828125 1.546875 -1.25q1.015625 -0.4375 2.4375 -0.4375q2.34375 0 3.515625 1.03125q1.1875 1.015625 1.25 2.71875l-2.5 0.109375q-0.171875 -0.953125 -0.703125 -1.375q-0.515625 -0.421875 -1.578125 -0.421875q-1.09375 0 -1.71875 0.453125q-0.390625 0.28125 -0.390625 0.765625q0 0.4375 0.375 0.75q0.46875 0.40625 2.296875 0.84375q1.828125 0.421875 2.703125 0.890625q0.875 0.453125 1.375 1.265625q0.5 0.7968712 0.5 1.9687462q0 1.0625 -0.59375 2.0q-0.59375 0.921875 -1.6875 1.375q-1.078125 0.453125 -2.6875 0.453125q-2.359375 0 -3.625 -1.078125q-1.25 -1.09375 -1.5 -3.171875zm11.620224 -0.59375q0 -1.1718712 0.578125 -2.2812462q0.59375 -1.109375 1.65625 -1.6875q1.078125 -0.59375 2.40625 -0.59375q2.03125 0 3.328125 1.328125q1.3125 1.3125 1.3125 3.3437462q0 2.03125 -1.328125 3.375q-1.3125 1.34375 -3.296875 1.34375q-1.234375 0 -2.359375 -0.546875q-1.125 -0.5625 -1.71875 -1.640625q-0.578125 -1.09375 -0.578125 -2.640625zm2.4375 0.125q0 1.34375 0.640625 2.0625q0.640625 0.703125 1.5625 0.703125q0.9375 0 1.5625 -0.703125q0.625 -0.71875 0.625 -2.078125q0 -1.3124962 -0.625 -2.0156212q-0.625 -0.71875 -1.5625 -0.71875q-0.921875 0 -1.5625 0.71875q-0.640625 0.703125 -0.640625 2.0312462zm14.615967 4.5l0 -1.34375q-0.484375 0.71875 -1.296875 1.140625q-0.796875 0.40625 -1.671875 0.40625q-0.90625 0 -1.625 -0.390625q-0.71875 -0.40625 -1.046875 -1.125q-0.328125 -0.71875 -0.328125 -1.984375l0 -5.687496l2.390625 0l0 4.124996q0 1.890625 0.125 2.328125q0.125 0.421875 0.46875 0.671875q0.359375 0.25 0.890625 0.25q0.609375 0 1.09375 -0.328125q0.484375 -0.34375 0.65625 -0.828125q0.171875 -0.5 0.171875 -2.421875l0 -3.7968712l2.375 0l0 8.984371l-2.203125 0zm6.944092 0l-2.375 0l0 -8.984371l2.203125 0l0 1.28125q0.578125 -0.90625 1.03125 -1.1875q0.453125 -0.296875 1.015625 -0.296875q0.8125 0 1.578125 0.453125l-0.734375 2.0625q-0.609375 -0.390625 -1.125 -0.390625q-0.5 0 -0.84375 0.28125q-0.34375 0.28125 -0.546875 1.0q-0.203125 0.7187462 -0.203125 2.9999962l0 2.78125zm12.305923 -6.328121l-2.34375 0.421875q-0.125 -0.703125 -0.546875 -1.046875q-0.40625 -0.359375 -1.078125 -0.359375q-0.890625 0 -1.421875 0.609375q-0.515625 0.609375 -0.515625 2.0468712q0 1.609375 0.53125 2.265625q0.53125 0.65625 1.4375 0.65625q0.6875 0 1.109375 -0.375q0.4375 -0.390625 0.609375 -1.328125l2.34375 0.390625q-0.375 1.609375 -1.40625 2.4375q-1.03125 0.8125 -2.765625 0.8125q-1.96875 0 -3.140625 -1.234375q-1.171875 -1.25 -1.171875 -3.453125q0 -2.2187462 1.171875 -3.4531212q1.1875 -1.25 3.1875 -1.25q1.640625 0 2.609375 0.703125q0.96875 0.703125 1.390625 2.15625zm7.012085 3.4687462l2.359375 0.390625q-0.453125 1.3125 -1.4375 2.0q-0.984375 0.671875 -2.46875 0.671875q-2.34375 0 -3.46875 -1.53125q-0.890625 -1.234375 -0.890625 -3.09375q0 -2.2343712 1.171875 -3.4999962q1.171875 -1.265625 2.953125 -1.265625q2.0 0 3.15625 1.328125q1.171875 1.3125 1.109375 4.046871l-5.953125 0q0.03125 1.0625 0.578125 1.65625q0.546875 0.578125 1.375 0.578125q0.546875 0 0.921875 -0.296875q0.390625 -0.3125 0.59375 -0.984375zm0.125 -2.40625q-0.015625 -1.0312462 -0.53125 -1.5624962q-0.5 -0.546875 -1.234375 -0.546875q-0.78125 0 -1.28125 0.578125q-0.515625 0.5625 -0.5 1.5312462l3.546875 0z" fill-rule="nonzero"/></g><g filter="url(#shadowFilter-p.2)"><use xlink:href="#p.2" transform="matrix(1.0 0.0 0.0 1.0 0.0 2.0)"/></g><defs><filter id="shadowFilter-p.2" filterUnits="userSpaceOnUse"><feGaussianBlur in="SourceAlpha" stdDeviation="2.0" result="blur"/><feComponentTransfer in="blur" color-interpolation-filters="sRGB"><feFuncR type="linear" slope="0" intercept="0.0"/><feFuncG type="linear" slope="0" intercept="0.0"/><feFuncB type="linear" slope="0" intercept="0.0"/><feFuncA type="linear" slope="0.5" intercept="0"/></feComponentTransfer></filter></defs><g id="p.2"><path fill="#efefef" d="m53.102985 102.67325l144.47244 0l0 40.409454l-144.47244 0z" fill-rule="evenodd"/><path stroke="#000000" stroke-width="2.0" stroke-linejoin="round" stroke-linecap="butt" d="m53.102985 102.67325l144.47244 0l0 40.409454l-144.47244 0z" fill-rule="evenodd"/><path fill="#000000" d="m70.692535 128.31325l0 -12.40625l2.5 0l0 12.40625l-2.5 0zm13.048691 0l-2.375 0l0 -4.578125q0 -1.46875 -0.15625 -1.890625q-0.15625 -0.421875 -0.5 -0.65625q-0.34375 -0.25 -0.828125 -0.25q-0.609375 0 -1.109375 0.34375q-0.484375 0.34375 -0.671875 0.90625q-0.171875 0.546875 -0.171875 2.0625l0 4.0625l-2.375 0l0 -8.984375l2.203125 0l0 1.3125q1.171875 -1.515625 2.953125 -1.515625q0.796875 0 1.4375 0.28125q0.65625 0.28125 0.984375 0.734375q0.34375 0.4375 0.46875 1.0q0.140625 0.546875 0.140625 1.59375l0 5.578125zm6.522217 -8.984375l0 1.890625l-1.625 0l0 3.625q0 1.09375 0.046875 1.28125q0.046875 0.1875 0.203125 0.3125q0.171875 0.109375 0.421875 0.109375q0.328125 0 0.953125 -0.234375l0.203125 1.84375q-0.828125 0.359375 -1.875 0.359375q-0.65625 0 -1.171875 -0.21875q-0.515625 -0.21875 -0.765625 -0.546875q-0.234375 -0.34375 -0.3125 -0.9375q-0.078125 -0.40625 -0.078125 -1.671875l0 -3.921875l-1.09375 0l0 -1.890625l1.09375 0l0 -1.78125l2.375 -1.390625l0 3.171875l1.625 0zm3.926651 8.984375l-2.375 0l0 -8.984375l2.203125 0l0 1.28125q0.578125 -0.90625 1.03125 -1.1875q0.453125 -0.296875 1.015625 -0.296875q0.8125 0 1.578125 0.453125l-0.734375 2.0625q-0.609375 -0.390625 -1.125 -0.390625q-0.5 0 -0.84375 0.28125q-0.34375 0.28125 -0.546875 1.0q-0.203125 0.71875 -0.203125 3.0l0 2.78125zm3.9152985 -4.625q0 -1.171875 0.578125 -2.28125q0.59375 -1.109375 1.65625 -1.6875q1.078125 -0.59375 2.40625 -0.59375q2.03125 0 3.328125 1.328125q1.3125 1.3125 1.3125 3.34375q0 2.03125 -1.328125 3.375q-1.3125 1.34375 -3.296875 1.34375q-1.234375 0 -2.359375 -0.546875q-1.125 -0.5625 -1.71875 -1.640625q-0.578125 -1.09375 -0.578125 -2.640625zm2.4375 0.125q0 1.34375 0.640625 2.0625q0.640625 0.703125 1.5625 0.703125q0.9375 0 1.5625 -0.703125q0.625 -0.71875 0.625 -2.078125q0 -1.3125 -0.625 -2.015625q-0.625 -0.71875 -1.5625 -0.71875q-0.921875 0 -1.5625 0.71875q-0.640625 0.703125 -0.640625 2.03125zm21.477158 -0.0625l2.421875 0.765625q-0.5625 2.03125 -1.859375 3.03125q-1.296875 0.984375 -3.296875 0.984375q-2.46875 0 -4.0625 -1.6875q-1.578125 -1.703125 -1.578125 -4.625q0 -3.09375 1.59375 -4.796875q1.59375 -1.71875 4.203125 -1.71875q2.28125 0 3.703125 1.34375q0.84375 0.796875 1.265625 2.28125l-2.484375 0.59375q-0.21875 -0.96875 -0.921875 -1.515625q-0.6875 -0.5625 -1.6875 -0.5625q-1.375 0 -2.234375 0.984375q-0.859375 0.984375 -0.859375 3.203125q0 2.359375 0.84375 3.359375q0.84375 1.0 2.203125 1.0q1.0 0 1.71875 -0.640625q0.71875 -0.640625 1.03125 -2.0zm6.9200745 -7.84375l0 4.5625q1.15625 -1.34375 2.75 -1.34375q0.828125 0 1.484375 0.3125q0.65625 0.296875 0.984375 0.78125q0.34375 0.46875 0.46875 1.046875q0.125 0.5625 0.125 1.78125l0 5.265625l-2.375 0l0 -4.75q0 -1.40625 -0.140625 -1.78125q-0.140625 -0.390625 -0.484375 -0.609375q-0.34375 -0.234375 -0.859375 -0.234375q-0.59375 0 -1.0625 0.296875q-0.453125 0.28125 -0.671875 0.859375q-0.21875 0.578125 -0.21875 1.71875l0 4.5l-2.375 0l0 -12.40625l2.375 0zm9.990967 6.15625l-2.15625 -0.390625q0.375 -1.296875 1.25 -1.921875q0.890625 -0.625 2.640625 -0.625q1.59375 0 2.375 0.375q0.78125 0.375 1.09375 0.953125q0.3125 0.578125 0.3125 2.125l-0.015625 2.78125q0 1.1875 0.109375 1.75q0.109375 0.5625 0.421875 1.203125l-2.34375 0q-0.09375 -0.234375 -0.234375 -0.703125q-0.0625 -0.203125 -0.078125 -0.28125q-0.609375 0.59375 -1.3125 0.890625q-0.6875 0.296875 -1.46875 0.296875q-1.390625 0 -2.1875 -0.75q-0.796875 -0.75 -0.796875 -1.90625q0 -0.765625 0.359375 -1.359375q0.359375 -0.59375 1.015625 -0.90625q0.65625 -0.328125 1.890625 -0.5625q1.671875 -0.3125 2.3125 -0.578125l0 -0.234375q0 -0.6875 -0.34375 -0.984375q-0.328125 -0.296875 -1.28125 -0.296875q-0.625 0 -0.984375 0.25q-0.359375 0.25 -0.578125 0.875zm3.1875 1.9375q-0.453125 0.15625 -1.453125 0.375q-0.984375 0.203125 -1.296875 0.40625q-0.453125 0.328125 -0.453125 0.828125q0 0.5 0.359375 0.875q0.375 0.359375 0.953125 0.359375q0.640625 0 1.234375 -0.421875q0.421875 -0.328125 0.5625 -0.796875q0.09375 -0.296875 0.09375 -1.15625l0 -0.46875zm12.855835 4.3125l-2.375 0l0 -4.578125q0 -1.46875 -0.15625 -1.890625q-0.15625 -0.421875 -0.5 -0.65625q-0.34375 -0.25 -0.828125 -0.25q-0.609375 0 -1.109375 0.34375q-0.484375 0.34375 -0.671875 0.90625q-0.171875 0.546875 -0.171875 2.0625l0 4.0625l-2.375 0l0 -8.984375l2.203125 0l0 1.3125q1.171875 -1.515625 2.953125 -1.515625q0.796875 0 1.4375 0.28125q0.65625 0.28125 0.984375 0.734375q0.34375 0.4375 0.46875 1.0q0.140625 0.546875 0.140625 1.59375l0 5.578125zm10.584717 0l-2.375 0l0 -4.578125q0 -1.46875 -0.15625 -1.890625q-0.15625 -0.421875 -0.5 -0.65625q-0.34375 -0.25 -0.828125 -0.25q-0.609375 0 -1.109375 0.34375q-0.484375 0.34375 -0.671875 0.90625q-0.171875 0.546875 -0.171875 2.0625l0 4.0625l-2.375 0l0 -8.984375l2.203125 0l0 1.3125q1.171875 -1.515625 2.953125 -1.515625q0.796875 0 1.4375 0.28125q0.65625 0.28125 0.984375 0.734375q0.34375 0.4375 0.46875 1.0q0.140625 0.546875 0.140625 1.59375l0 5.578125zm7.615967 -2.859375l2.359375 0.390625q-0.453125 1.3125 -1.4375 2.0q-0.984375 0.671875 -2.46875 0.671875q-2.34375 0 -3.46875 -1.53125q-0.890625 -1.234375 -0.890625 -3.09375q0 -2.234375 1.171875 -3.5q1.171875 -1.265625 2.953125 -1.265625q2.0 0 3.15625 1.328125q1.171875 1.3125 1.109375 4.046875l-5.953125 0q0.03125 1.0625 0.578125 1.65625q0.546875 0.578125 1.375 0.578125q0.546875 0 0.921875 -0.296875q0.390625 -0.3125 0.59375 -0.984375zm0.125 -2.40625q-0.015625 -1.03125 -0.53125 -1.5625q-0.5 -0.546875 -1.234375 -0.546875q-0.78125 0 -1.28125 0.578125q-0.515625 0.5625 -0.5 1.53125l3.546875 0zm4.30896 5.265625l0 -12.40625l2.375 0l0 12.40625l-2.375 0z" fill-rule="nonzero"/></g><g filter="url(#shadowFilter-p.3)"><use xlink:href="#p.3" transform="matrix(1.0 0.0 0.0 1.0 0.0 2.0)"/></g><defs><filter id="shadowFilter-p.3" filterUnits="userSpaceOnUse"><feGaussianBlur in="SourceAlpha" stdDeviation="2.0" result="blur"/><feComponentTransfer in="blur" color-interpolation-filters="sRGB"><feFuncR type="linear" slope="0" intercept="0.0"/><feFuncG type="linear" slope="0" intercept="0.0"/><feFuncB type="linear" slope="0" intercept="0.0"/><feFuncA type="linear" slope="0.5" intercept="0"/></feComponentTransfer></filter></defs><g id="p.3"><path fill="#efefef" d="m53.102985 162.59406l144.47244 0l0 40.40944l-144.47244 0z" fill-rule="evenodd"/><path stroke="#000000" stroke-width="2.0" stroke-linejoin="round" stroke-linecap="butt" d="m53.102985 162.59406l144.47244 0l0 40.40944l-144.47244 0z" fill-rule="evenodd"/><path fill="#000000" d="m77.41904 188.23405l0 -12.40625l2.5 0l0 12.40625l-2.5 0zm13.048691 0l-2.375 0l0 -4.578125q0 -1.46875 -0.15625 -1.890625q-0.15625 -0.421875 -0.5 -0.65625q-0.34375 -0.25 -0.828125 -0.25q-0.609375 0 -1.109375 0.34375q-0.484375 0.34375 -0.671875 0.90625q-0.171875 0.546875 -0.171875 2.0625l0 4.0625l-2.375 0l0 -8.984375l2.203125 0l0 1.3125q1.171875 -1.515625 2.953125 -1.515625q0.796875 0 1.4375 0.28125q0.65625 0.28125 0.984375 0.734375q0.34375 0.4375 0.46875 1.0q0.140625 0.546875 0.140625 1.59375l0 5.578125zm6.522217 -8.984375l0 1.890625l-1.625 0l0 3.625q0 1.09375 0.046875 1.28125q0.046875 0.1875 0.203125 0.3125q0.171875 0.109375 0.421875 0.109375q0.328125 0 0.953125 -0.234375l0.203125 1.84375q-0.828125 0.359375 -1.875 0.359375q-0.65625 0 -1.171875 -0.21875q-0.515625 -0.21875 -0.765625 -0.546875q-0.234375 -0.34375 -0.3125 -0.9375q-0.078125 -0.40625 -0.078125 -1.671875l0 -3.921875l-1.09375 0l0 -1.890625l1.09375 0l0 -1.78125l2.375 -1.390625l0 3.171875l1.625 0zm3.426651 2.734375l-2.15625 -0.390625q0.375 -1.296875 1.25 -1.921875q0.890625 -0.625 2.640625 -0.625q1.59375 0 2.375 0.375q0.78125 0.375 1.09375 0.953125q0.3125 0.578125 0.3125 2.125l-0.015625 2.78125q0 1.1875 0.109375 1.75q0.109375 0.5625 0.421875 1.203125l-2.34375 0q-0.09375 -0.234375 -0.234375 -0.703125q-0.0625 -0.203125 -0.078125 -0.28125q-0.609375 0.59375 -1.3125 0.890625q-0.6875 0.296875 -1.46875 0.296875q-1.390625 0 -2.1875 -0.75q-0.796875 -0.75 -0.796875 -1.90625q0 -0.765625 0.359375 -1.359375q0.359375 -0.59375 1.015625 -0.90625q0.65625 -0.328125 1.890625 -0.5625q1.671875 -0.3125 2.3125 -0.578125l0 -0.234375q0 -0.6875 -0.34375 -0.984375q-0.328125 -0.296875 -1.28125 -0.296875q-0.625 0 -0.984375 0.25q-0.359375 0.25 -0.578125 0.875zm3.1875 1.9375q-0.453125 0.15625 -1.453125 0.375q-0.984375 0.203125 -1.296875 0.40625q-0.453125 0.328125 -0.453125 0.828125q0 0.5 0.359375 0.875q0.375 0.359375 0.953125 0.359375q0.640625 0 1.234375 -0.421875q0.421875 -0.328125 0.5625 -0.796875q0.09375 -0.296875 0.09375 -1.15625l0 -0.46875zm4.59021 4.3125l0 -12.40625l2.375 0l0 6.578125l2.796875 -3.15625l2.921875 0l-3.078125 3.28125l3.296875 5.703125l-2.5625 0l-2.265625 -4.03125l-1.109375 1.15625l0 2.875l-2.375 0zm14.93396 -2.859375l2.359375 0.390625q-0.453125 1.3125 -1.4375 2.0q-0.984375 0.671875 -2.46875 0.671875q-2.34375 0 -3.46875 -1.53125q-0.890625 -1.234375 -0.890625 -3.09375q0 -2.234375 1.171875 -3.5q1.171875 -1.265625 2.953125 -1.265625q2.0 0 3.15625 1.328125q1.171875 1.3125 1.109375 4.046875l-5.953125 0q0.03125 1.0625 0.578125 1.65625q0.546875 0.578125 1.375 0.578125q0.546875 0 0.921875 -0.296875q0.390625 -0.3125 0.59375 -0.984375zm0.125 -2.40625q-0.015625 -1.03125 -0.53125 -1.5625q-0.5 -0.546875 -1.234375 -0.546875q-0.78125 0 -1.28125 0.578125q-0.515625 0.5625 -0.5 1.53125l3.546875 0zm9.154526 5.265625l0 -12.40625l8.5 0l0 2.09375l-6.0 0l0 2.9375l5.171875 0l0 2.109375l-5.171875 0l0 5.265625l-2.5 0zm9.990967 -4.625q0 -1.171875 0.578125 -2.28125q0.59375 -1.109375 1.65625 -1.6875q1.078125 -0.59375 2.40625 -0.59375q2.03125 0 3.328125 1.328125q1.3125 1.3125 1.3125 3.34375q0 2.03125 -1.328125 3.375q-1.3125 1.34375 -3.296875 1.34375q-1.234375 0 -2.359375 -0.546875q-1.125 -0.5625 -1.71875 -1.640625q-0.578125 -1.09375 -0.578125 -2.640625zm2.4375 0.125q0 1.34375 0.640625 2.0625q0.640625 0.703125 1.5625 0.703125q0.9375 0 1.5625 -0.703125q0.625 -0.71875 0.625 -2.078125q0 -1.3125 -0.625 -2.015625q-0.625 -0.71875 -1.5625 -0.71875q-0.921875 0 -1.5625 0.71875q-0.640625 0.703125 -0.640625 2.03125zm10.975342 4.5l-2.375 0l0 -8.984375l2.203125 0l0 1.28125q0.578125 -0.90625 1.03125 -1.1875q0.453125 -0.296875 1.015625 -0.296875q0.8125 0 1.578125 0.453125l-0.734375 2.0625q-0.609375 -0.390625 -1.125 -0.390625q-0.5 0 -0.84375 0.28125q-0.34375 0.28125 -0.546875 1.0q-0.203125 0.71875 -0.203125 3.0l0 2.78125zm4.2902985 -8.984375l2.1875 0l0 1.21875q1.1875 -1.421875 2.8125 -1.421875q0.859375 0 1.484375 0.359375q0.640625 0.34375 1.046875 1.0625q0.59375 -0.71875 1.28125 -1.0625q0.6875 -0.359375 1.46875 -0.359375q0.984375 0 1.671875 0.40625q0.6875 0.390625 1.015625 1.171875q0.25 0.578125 0.25 1.859375l0 5.75l-2.375 0l0 -5.140625q0 -1.328125 -0.25 -1.71875q-0.328125 -0.515625 -1.015625 -0.515625q-0.5 0 -0.9375 0.3125q-0.4375 0.296875 -0.640625 0.890625q-0.1875 0.59375 -0.1875 1.859375l0 4.3125l-2.375 0l0 -4.921875q0 -1.3125 -0.125 -1.6875q-0.125 -0.390625 -0.390625 -0.578125q-0.265625 -0.1875 -0.734375 -0.1875q-0.546875 0 -0.984375 0.296875q-0.4375 0.296875 -0.640625 0.859375q-0.1875 0.5625 -0.1875 1.859375l0 4.359375l-2.375 0l0 -8.984375z" fill-rule="nonzero"/></g><g filter="url(#shadowFilter-p.4)"><use xlink:href="#p.4" transform="matrix(1.0 0.0 0.0 1.0 0.0 2.0)"/></g><defs><filter id="shadowFilter-p.4" filterUnits="userSpaceOnUse"><feGaussianBlur in="SourceAlpha" stdDeviation="2.0" result="blur"/><feComponentTransfer in="blur" color-interpolation-filters="sRGB"><feFuncR type="linear" slope="0" intercept="0.0"/><feFuncG type="linear" slope="0" intercept="0.0"/><feFuncB type="linear" slope="0" intercept="0.0"/><feFuncA type="linear" slope="0.5" intercept="0"/></feComponentTransfer></filter></defs><g id="p.4"><path fill="#efefef" d="m53.102985 404.48117l144.47244 0l0 40.409454l-144.47244 0z" fill-rule="evenodd"/><path stroke="#000000" stroke-width="2.0" stroke-linejoin="round" stroke-linecap="butt" d="m53.102985 404.48117l144.47244 0l0 40.409454l-144.47244 0z" fill-rule="evenodd"/><path fill="#000000" d="m105.389366 423.9962q0 -1.890625 0.5625 -3.1875q0.4375 -0.9375 1.15625 -1.6875q0.734375 -0.765625 1.609375 -1.125q1.15625 -0.484375 2.671875 -0.484375q2.75 0 4.390625 1.703125q1.640625 1.6875 1.640625 4.71875q0 3.0 -1.640625 4.703125q-1.625 1.703125 -4.359375 1.703125q-2.765625 0 -4.40625 -1.6875q-1.625 -1.703125 -1.625 -4.65625zm2.578125 -0.078125q0 2.09375 0.96875 3.1875q0.984375 1.09375 2.484375 1.09375q1.5 0 2.453125 -1.078125q0.96875 -1.09375 0.96875 -3.25q0 -2.125 -0.9375 -3.171875q-0.9375 -1.046875 -2.484375 -1.046875q-1.546875 0 -2.5 1.0625q-0.953125 1.0625 -0.953125 3.203125zm10.353378 -2.78125l1.3125 0l0 -0.671875q0 -1.140625 0.234375 -1.6875q0.25 -0.5625 0.890625 -0.90625q0.65625 -0.359375 1.65625 -0.359375q1.015625 0 1.984375 0.296875l-0.328125 1.65625q-0.5625 -0.125 -1.09375 -0.125q-0.515625 0 -0.734375 0.234375q-0.21875 0.234375 -0.21875 0.921875l0 0.640625l1.765625 0l0 1.875l-1.765625 0l0 7.109375l-2.390625 0l0 -7.109375l-1.3125 0l0 -1.875zm5.770401 0l1.3125 0l0 -0.671875q0 -1.140625 0.234375 -1.6875q0.25 -0.5625 0.890625 -0.90625q0.65625 -0.359375 1.6562424 -0.359375q1.015625 0 1.984375 0.296875l-0.328125 1.65625q-0.5625 -0.125 -1.09375 -0.125q-0.515625 0 -0.734375 0.234375q-0.21874237 0.234375 -0.21874237 0.921875l0 0.640625l1.7656174 0l0 1.875l-1.7656174 0l0 7.109375l-2.390625 0l0 -7.109375l-1.3125 0l0 -1.875zm12.020393 6.125l2.359375 0.390625q-0.453125 1.3125 -1.4375 2.0q-0.984375 0.671875 -2.46875 0.671875q-2.34375 0 -3.46875 -1.53125q-0.890625 -1.234375 -0.890625 -3.09375q0 -2.234375 1.171875 -3.5q1.171875 -1.265625 2.953125 -1.265625q2.0 0 3.15625 1.328125q1.171875 1.3125 1.109375 4.046875l-5.953125 0q0.03125 1.0625 0.578125 1.65625q0.546875 0.578125 1.375 0.578125q0.546875 0 0.921875 -0.296875q0.390625 -0.3125 0.59375 -0.984375zm0.125 -2.40625q-0.015625 -1.03125 -0.53125 -1.5625q-0.5 -0.546875 -1.234375 -0.546875q-0.78125 0 -1.28125 0.578125q-0.515625 0.5625 -0.5 1.53125l3.546875 0zm6.574585 5.265625l-2.375 0l0 -8.984375l2.203125 0l0 1.28125q0.578125 -0.90625 1.03125 -1.1875q0.453125 -0.296875 1.015625 -0.296875q0.8125 0 1.578125 0.453125l-0.734375 2.0625q-0.609375 -0.390625 -1.125 -0.390625q-0.5 0 -0.84375 0.28125q-0.34375 0.28125 -0.546875 1.0q-0.203125 0.71875 -0.203125 3.0l0 2.78125z" fill-rule="nonzero"/></g><g filter="url(#shadowFilter-p.5)"><use xlink:href="#p.5" transform="matrix(1.0 0.0 0.0 1.0 0.0 2.0)"/></g><defs><filter id="shadowFilter-p.5" filterUnits="userSpaceOnUse"><feGaussianBlur in="SourceAlpha" stdDeviation="2.0" result="blur"/><feComponentTransfer in="blur" color-interpolation-filters="sRGB"><feFuncR type="linear" slope="0" intercept="0.0"/><feFuncG type="linear" slope="0" intercept="0.0"/><feFuncB type="linear" slope="0" intercept="0.0"/><feFuncA type="linear" slope="0.5" intercept="0"/></feComponentTransfer></filter></defs><g id="p.5"><path fill="#efefef" d="m53.102985 222.9296l144.47244 0l0 40.409454l-144.47244 0z" fill-rule="evenodd"/><path stroke="#000000" stroke-width="2.0" stroke-linejoin="round" stroke-linecap="butt" d="m53.102985 222.9296l144.47244 0l0 40.409454l-144.47244 0z" fill-rule="evenodd"/><path fill="#000000" d="m103.8636 248.5696l0 -10.3125l-3.671875 0l0 -2.09375l9.859375 0l0 2.09375l-3.671875 0l0 10.3125l-2.515625 0zm9.097092 0l-2.375 0l0 -8.984375l2.203125 0l0 1.28125q0.578125 -0.90625 1.03125 -1.1875q0.453125 -0.296875 1.015625 -0.296875q0.8125 0 1.578125 0.453125l-0.734375 2.0625q-0.609375 -0.390625 -1.125 -0.390625q-0.5 0 -0.84375 0.28125q-0.34375 0.28125 -0.546875 1.0q-0.203125 0.71875 -0.203125 3.0l0 2.78125zm4.4777985 -10.203125l0 -2.203125l2.375 0l0 2.203125l-2.375 0zm0 10.203125l0 -8.984375l2.375 0l0 8.984375l-2.375 0zm6.579941 -6.25l-2.15625 -0.390625q0.375 -1.296875 1.25 -1.921875q0.890625 -0.625 2.640625 -0.625q1.59375 0 2.375 0.375q0.78125 0.375 1.09375 0.953125q0.3125 0.578125 0.3125 2.125l-0.015625 2.78125q0 1.1875 0.109375 1.75q0.109375 0.5625 0.421875 1.203125l-2.34375 0q-0.09375 -0.234375 -0.234375 -0.703125q-0.0625 -0.203125 -0.078125 -0.28125q-0.609375 0.59375 -1.3125 0.890625q-0.6875 0.296875 -1.46875 0.296875q-1.390625 0 -2.1875 -0.75q-0.796875 -0.75 -0.796875 -1.90625q0 -0.765625 0.359375 -1.359375q0.359375 -0.59375 1.015625 -0.90625q0.65625 -0.328125 1.890625 -0.5625q1.671875 -0.3125 2.3125 -0.578125l0 -0.234375q0 -0.6875 -0.34375 -0.984375q-0.328125 -0.296875 -1.28125 -0.296875q-0.625 0 -0.984375 0.25q-0.359375 0.25 -0.578125 0.875zm3.1875 1.9375q-0.453125 0.15625 -1.453125 0.375q-0.984375 0.203125 -1.296875 0.40625q-0.453125 0.328125 -0.453125 0.828125q0 0.5 0.359375 0.875q0.375 0.359375 0.953125 0.359375q0.640625 0 1.234375 -0.421875q0.421875 -0.328125 0.5625 -0.796875q0.09375 -0.296875 0.09375 -1.15625l0 -0.46875zm4.46521 4.90625l2.703125 0.328125q0.078125 0.46875 0.3125 0.65625q0.34375 0.25 1.078125 0.25q0.921875 0 1.390625 -0.28125q0.3125 -0.1875 0.46875 -0.59375q0.109375 -0.296875 0.109375 -1.09375l0 -1.3125q-1.0625 1.453125 -2.6875 1.453125q-1.8125 0 -2.859375 -1.53125q-0.84375 -1.203125 -0.84375 -3.015625q0 -2.25 1.09375 -3.4375q1.09375 -1.203125 2.703125 -1.203125q1.671875 0 2.75 1.46875l0 -1.265625l2.21875 0l0 8.0625q0 1.59375 -0.265625 2.375q-0.25 0.78125 -0.734375 1.234375q-0.46875 0.453125 -1.265625 0.703125q-0.78125 0.25 -1.984375 0.25q-2.296875 0 -3.25 -0.78125q-0.953125 -0.78125 -0.953125 -1.984375q0 -0.109375 0.015625 -0.28125zm2.109375 -5.265625q0 1.421875 0.546875 2.09375q0.5625 0.65625 1.375 0.65625q0.875 0 1.46875 -0.671875q0.609375 -0.6875 0.609375 -2.03125q0 -1.390625 -0.578125 -2.0625q-0.578125 -0.6875 -1.453125 -0.6875q-0.859375 0 -1.421875 0.671875q-0.546875 0.65625 -0.546875 2.03125zm13.897217 1.8125l2.359375 0.390625q-0.453125 1.3125 -1.4375 2.0q-0.984375 0.671875 -2.46875 0.671875q-2.34375 0 -3.46875 -1.53125q-0.890625 -1.234375 -0.890625 -3.09375q0 -2.234375 1.171875 -3.5q1.171875 -1.265625 2.953125 -1.265625q2.0 0 3.15625 1.328125q1.171875 1.3125 1.109375 4.046875l-5.953125 0q0.03125 1.0625 0.578125 1.65625q0.546875 0.578125 1.375 0.578125q0.546875 0 0.921875 -0.296875q0.390625 -0.3125 0.59375 -0.984375zm0.125 -2.40625q-0.015625 -1.03125 -0.53125 -1.5625q-0.5 -0.546875 -1.234375 -0.546875q-0.78125 0 -1.28125 0.578125q-0.515625 0.5625 -0.5 1.53125l3.546875 0z" fill-rule="nonzero"/></g><g filter="url(#shadowFilter-p.6)"><use xlink:href="#p.6" transform="matrix(1.0 0.0 0.0 1.0 0.0 2.0)"/></g><defs><filter id="shadowFilter-p.6" filterUnits="userSpaceOnUse"><feGaussianBlur in="SourceAlpha" stdDeviation="2.0" result="blur"/><feComponentTransfer in="blur" color-interpolation-filters="sRGB"><feFuncR type="linear" slope="0" intercept="0.0"/><feFuncG type="linear" slope="0" intercept="0.0"/><feFuncB type="linear" slope="0" intercept="0.0"/><feFuncA type="linear" slope="0.5" intercept="0"/></feComponentTransfer></filter></defs><g id="p.6"><path fill="#efefef" d="m53.102985 282.24008l144.47244 0l0 40.409454l-144.47244 0z" fill-rule="evenodd"/><path stroke="#000000" stroke-width="2.0" stroke-linejoin="round" stroke-linecap="butt" d="m53.102985 282.24008l144.47244 0l0 40.409454l-144.47244 0z" fill-rule="evenodd"/><path fill="#000000" d="m73.671486 307.88007l0 -12.40625l8.5 0l0 2.09375l-6.0 0l0 2.9375l5.171875 0l0 2.109375l-5.171875 0l0 5.265625l-2.5 0zm9.990967 -4.625q0 -1.171875 0.578125 -2.28125q0.59375 -1.109375 1.65625 -1.6875q1.078125 -0.59375 2.40625 -0.59375q2.03125 0 3.328125 1.328125q1.3125 1.3125 1.3125 3.34375q0 2.03125 -1.328125 3.375q-1.3125 1.34375 -3.296875 1.34375q-1.234375 0 -2.359375 -0.546875q-1.125 -0.5625 -1.71875 -1.640625q-0.578125 -1.09375 -0.578125 -2.640625zm2.4375 0.125q0 1.34375 0.640625 2.0625q0.640625 0.703125 1.5625 0.703125q0.9375 0 1.5625 -0.703125q0.625 -0.71875 0.625 -2.078125q0 -1.3125 -0.625 -2.015625q-0.625 -0.71875 -1.5625 -0.71875q-0.921875 0 -1.5625 0.71875q-0.640625 0.703125 -0.640625 2.03125zm14.615967 4.5l0 -1.34375q-0.484375 0.71875 -1.296875 1.140625q-0.796875 0.40625 -1.671875 0.40625q-0.90625 0 -1.625 -0.390625q-0.71875 -0.40625 -1.046875 -1.125q-0.328125 -0.71875 -0.328125 -1.984375l0 -5.6875l2.390625 0l0 4.125q0 1.890625 0.125 2.328125q0.125 0.421875 0.46875 0.671875q0.359375 0.25 0.890625 0.25q0.609375 0 1.09375 -0.328125q0.484375 -0.34375 0.65625 -0.828125q0.171875 -0.5 0.171875 -2.421875l0 -3.796875l2.375 0l0 8.984375l-2.203125 0zm12.850342 0l-2.375 0l0 -4.578125q0 -1.46875 -0.15625 -1.890625q-0.15625 -0.421875 -0.5 -0.65625q-0.34375 -0.25 -0.828125 -0.25q-0.609375 0 -1.109375 0.34375q-0.484375 0.34375 -0.671875 0.90625q-0.171875 0.546875 -0.171875 2.0625l0 4.0625l-2.375 0l0 -8.984375l2.203125 0l0 1.3125q1.171875 -1.515625 2.953125 -1.515625q0.796875 0 1.4375 0.28125q0.65625 0.28125 0.984375 0.734375q0.34375 0.4375 0.46875 1.0q0.140625 0.546875 0.140625 1.59375l0 5.578125zm10.647217 0l-2.203125 0l0 -1.3125q-0.5625 0.765625 -1.3125 1.140625q-0.734375 0.375 -1.5 0.375q-1.546875 0 -2.65625 -1.25q-1.109375 -1.25 -1.109375 -3.484375q0 -2.28125 1.078125 -3.46875q1.078125 -1.1875 2.71875 -1.1875q1.5 0 2.609375 1.25l0 -4.46875l2.375 0l0 12.40625zm-6.34375 -4.6875q0 1.4375 0.390625 2.078125q0.578125 0.9375 1.609375 0.9375q0.828125 0 1.390625 -0.703125q0.578125 -0.703125 0.578125 -2.078125q0 -1.546875 -0.5625 -2.234375q-0.546875 -0.6875 -1.421875 -0.6875q-0.84375 0 -1.421875 0.671875q-0.5625 0.671875 -0.5625 2.015625zm13.897209 1.828125l2.359375 0.390625q-0.453125 1.3125 -1.4375 2.0q-0.984375 0.671875 -2.46875 0.671875q-2.3437424 0 -3.4687424 -1.53125q-0.890625 -1.234375 -0.890625 -3.09375q0 -2.234375 1.171875 -3.5q1.1718674 -1.265625 2.9531174 -1.265625q2.0 0 3.15625 1.328125q1.171875 1.3125 1.109375 4.046875l-5.953125 0q0.03125 1.0625 0.578125 1.65625q0.546875 0.578125 1.375 0.578125q0.546875 0 0.921875 -0.296875q0.390625 -0.3125 0.59375 -0.984375zm0.125 -2.40625q-0.015625 -1.03125 -0.53125 -1.5625q-0.5 -0.546875 -1.234375 -0.546875q-0.78125 0 -1.28125 0.578125q-0.515625 0.5625 -0.5 1.53125l3.546875 0zm6.574585 5.265625l-2.375 0l0 -8.984375l2.203125 0l0 1.28125q0.578125 -0.90625 1.03125 -1.1875q0.453125 -0.296875 1.015625 -0.296875q0.8125 0 1.578125 0.453125l-0.734375 2.0625q-0.609375 -0.390625 -1.125 -0.390625q-0.5 0 -0.84375 0.28125q-0.34375 0.28125 -0.546875 1.0q-0.203125 0.71875 -0.203125 3.0l0 2.78125zm17.24524 -4.5625l2.421875 0.765625q-0.5625 2.03125 -1.859375 3.03125q-1.296875 0.984375 -3.296875 0.984375q-2.46875 0 -4.0625 -1.6875q-1.578125 -1.703125 -1.578125 -4.625q0 -3.09375 1.59375 -4.796875q1.59375 -1.71875 4.203125 -1.71875q2.28125 0 3.703125 1.34375q0.84375 0.796875 1.265625 2.28125l-2.484375 0.59375q-0.21875 -0.96875 -0.921875 -1.515625q-0.6875 -0.5625 -1.6875 -0.5625q-1.375 0 -2.234375 0.984375q-0.859375 0.984375 -0.859375 3.203125q0 2.359375 0.84375 3.359375q0.84375 1.0 2.203125 1.0q1.0 0 1.71875 -0.640625q0.71875 -0.640625 1.03125 -2.0zm6.3263245 -1.6875l-2.15625 -0.390625q0.375 -1.296875 1.25 -1.921875q0.890625 -0.625 2.640625 -0.625q1.59375 0 2.375 0.375q0.78125 0.375 1.09375 0.953125q0.3125 0.578125 0.3125 2.125l-0.015625 2.78125q0 1.1875 0.109375 1.75q0.109375 0.5625 0.421875 1.203125l-2.34375 0q-0.09375 -0.234375 -0.234375 -0.703125q-0.0625 -0.203125 -0.078125 -0.28125q-0.609375 0.59375 -1.3125 0.890625q-0.6875 0.296875 -1.46875 0.296875q-1.390625 0 -2.1875 -0.75q-0.796875 -0.75 -0.796875 -1.90625q0 -0.765625 0.359375 -1.359375q0.359375 -0.59375 1.015625 -0.90625q0.65625 -0.328125 1.890625 -0.5625q1.671875 -0.3125 2.3125 -0.578125l0 -0.234375q0 -0.6875 -0.34375 -0.984375q-0.328125 -0.296875 -1.28125 -0.296875q-0.625 0 -0.984375 0.25q-0.359375 0.25 -0.578125 0.875zm3.1875 1.9375q-0.453125 0.15625 -1.453125 0.375q-0.984375 0.203125 -1.296875 0.40625q-0.453125 0.328125 -0.453125 0.828125q0 0.5 0.359375 0.875q0.375 0.359375 0.953125 0.359375q0.640625 0 1.234375 -0.421875q0.421875 -0.328125 0.5625 -0.796875q0.09375 -0.296875 0.09375 -1.15625l0 -0.46875zm4.68396 4.3125l0 -12.40625l2.375 0l0 12.40625l-2.375 0zm4.814316 0l0 -12.40625l2.375 0l0 12.40625l-2.375 0z" fill-rule="nonzero"/></g><g filter="url(#shadowFilter-p.7)"><use xlink:href="#p.7" transform="matrix(1.0 0.0 0.0 1.0 0.0 2.0)"/></g><defs><filter id="shadowFilter-p.7" filterUnits="userSpaceOnUse"><feGaussianBlur in="SourceAlpha" stdDeviation="2.0" result="blur"/><feComponentTransfer in="blur" color-interpolation-filters="sRGB"><feFuncR type="linear" slope="0" intercept="0.0"/><feFuncG type="linear" slope="0" intercept="0.0"/><feFuncB type="linear" slope="0" intercept="0.0"/><feFuncA type="linear" slope="0.5" intercept="0"/></feComponentTransfer></filter></defs><g id="p.7"><path fill="#0000ff" d="m53.102985 466.21783l144.47244 0l0 40.409454l-144.47244 0z" fill-rule="evenodd"/><path stroke="#000000" stroke-width="2.0" stroke-linejoin="round" stroke-linecap="butt" d="m53.102985 466.21783l144.47244 0l0 40.409454l-144.47244 0z" fill-rule="evenodd"/><path fill="#ffffff" d="m110.94882 487.29535l2.421875 0.765625q-0.5625 2.03125 -1.859375 3.03125q-1.296875 0.984375 -3.296875 0.984375q-2.46875 0 -4.0625 -1.6875q-1.578125 -1.703125 -1.578125 -4.625q0 -3.09375 1.59375 -4.796875q1.59375 -1.71875 4.203125 -1.71875q2.28125 0 3.703125 1.34375q0.84375 0.796875 1.265625 2.28125l-2.484375 0.59375q-0.21875 -0.96875 -0.921875 -1.515625q-0.6875 -0.5625 -1.6875 -0.5625q-1.375 0 -2.234375 0.984375q-0.859375 0.984375 -0.859375 3.203125q0 2.359375 0.84375 3.359375q0.84375 1.0 2.203125 1.0q1.0 0 1.71875 -0.640625q0.71875 -0.640625 1.03125 -2.0zm4.5606995 4.5625l0 -12.40625l2.375 0l0 12.40625l-2.375 0zm4.251816 -4.625q0 -1.171875 0.578125 -2.28125q0.59375 -1.109375 1.65625 -1.6875q1.078125 -0.59375 2.40625 -0.59375q2.03125 0 3.328125 1.328125q1.3125 1.3125 1.3125 3.34375q0 2.03125 -1.328125 3.375q-1.3125 1.34375 -3.296875 1.34375q-1.234375 0 -2.359375 -0.546875q-1.125 -0.5625 -1.71875 -1.640625q-0.578125 -1.09375 -0.578125 -2.640625zm2.4375 0.125q0 1.34375 0.640625 2.0625q0.640625 0.703125 1.5625 0.703125q0.9375 0 1.5625 -0.703125q0.625 -0.71875 0.625 -2.078125q0 -1.3125 -0.625 -2.015625q-0.625 -0.71875 -1.5625 -0.71875q-0.921875 0 -1.5625 0.71875q-0.640625 0.703125 -0.640625 2.03125zm7.865967 1.9375l2.390625 -0.359375q0.140625 0.6875 0.609375 1.046875q0.46875 0.359375 1.3125 0.359375q0.921875 0 1.375 -0.34375q0.3125 -0.234375 0.3125 -0.625q0 -0.28125 -0.15625 -0.453125q-0.1875 -0.171875 -0.796875 -0.3125q-2.875 -0.640625 -3.65625 -1.15625q-1.0625 -0.734375 -1.0625 -2.03125q0 -1.15625 0.921875 -1.953125q0.921875 -0.796875 2.859375 -0.796875q1.84375 0 2.734375 0.609375q0.90625 0.59375 1.25 1.765625l-2.25 0.421875q-0.140625 -0.53125 -0.546875 -0.8125q-0.390625 -0.28125 -1.140625 -0.28125q-0.9375 0 -1.34375 0.265625q-0.28125 0.1875 -0.28125 0.484375q0 0.25 0.25 0.4375q0.3125 0.234375 2.203125 0.671875q1.90625 0.421875 2.671875 1.046875q0.734375 0.640625 0.734375 1.765625q0 1.234375 -1.03125 2.125q-1.03125 0.890625 -3.046875 0.890625q-1.84375 0 -2.921875 -0.734375q-1.0625 -0.75 -1.390625 -2.03125zm15.68396 -0.296875l2.359375 0.390625q-0.453125 1.3125 -1.4375 2.0q-0.984375 0.671875 -2.46875 0.671875q-2.34375 0 -3.46875 -1.53125q-0.890625 -1.234375 -0.890625 -3.09375q0 -2.234375 1.171875 -3.5q1.171875 -1.265625 2.953125 -1.265625q2.0 0 3.15625 1.328125q1.171875 1.3125 1.109375 4.046875l-5.953125 0q0.03125 1.0625 0.578125 1.65625q0.546875 0.578125 1.375 0.578125q0.546875 0 0.921875 -0.296875q0.390625 -0.3125 0.59375 -0.984375zm0.125 -2.40625q-0.015625 -1.03125 -0.53125 -1.5625q-0.5 -0.546875 -1.234375 -0.546875q-0.78125 0 -1.28125 0.578125q-0.515625 0.5625 -0.5 1.53125l3.546875 0z" fill-rule="nonzero"/></g><g filter="url(#shadowFilter-p.8)"><use xlink:href="#p.8" transform="matrix(1.0 0.0 0.0 1.0 0.0 2.0)"/></g><defs><filter id="shadowFilter-p.8" filterUnits="userSpaceOnUse"><feGaussianBlur in="SourceAlpha" stdDeviation="2.0" result="blur"/><feComponentTransfer in="blur" color-interpolation-filters="sRGB"><feFuncR type="linear" slope="0" intercept="0.0"/><feFuncG type="linear" slope="0" intercept="0.0"/><feFuncB type="linear" slope="0" intercept="0.0"/><feFuncA type="linear" slope="0.5" intercept="0"/></feComponentTransfer></filter></defs><g id="p.8"><path fill="#efefef" d="m53.102985 343.2268l144.47244 0l0 40.409454l-144.47244 0z" fill-rule="evenodd"/><path stroke="#000000" stroke-width="2.0" stroke-linejoin="round" stroke-linecap="butt" d="m53.102985 343.2268l144.47244 0l0 40.409454l-144.47244 0z" fill-rule="evenodd"/><path fill="#000000" d="m88.07048 356.46057l4.578125 0q1.546875 0 2.359375 0.234375q1.09375 0.328125 1.875 1.15625q0.78125 0.8125 1.1875 2.0q0.40625 1.1875 0.40625 2.9375q0 1.53125 -0.390625 2.640625q-0.453125 1.34375 -1.328125 2.1875q-0.640625 0.625 -1.75 0.984375q-0.828125 0.265625 -2.21875 0.265625l-4.71875 0l0 -12.40625zm2.5 2.09375l0 8.21875l1.875 0q1.046875 0 1.515625 -0.109375q0.609375 -0.15625 1.0 -0.515625q0.40625 -0.375 0.65625 -1.203125q0.265625 -0.828125 0.265625 -2.265625q0 -1.4375 -0.265625 -2.203125q-0.25 -0.78125 -0.703125 -1.203125q-0.453125 -0.4375 -1.15625 -0.59375q-0.53125 -0.125 -2.0625 -0.125l-1.125 0zm10.013824 0.109375l0 -2.203125l2.375 0l0 2.203125l-2.375 0zm0 10.203125l0 -8.984375l2.375 0l0 8.984375l-2.375 0zm4.814316 0l0 -12.40625l2.375 0l0 12.40625l-2.375 0zm4.814316 -10.203125l0 -2.203125l2.375 0l0 2.203125l-2.375 0zm0 10.203125l0 -8.984375l2.375 0l0 8.984375l-2.375 0zm4.595566 0.59375l2.703125 0.328125q0.078125 0.46875 0.3125 0.65625q0.34375 0.25 1.078125 0.25q0.921875 0 1.390625 -0.28125q0.3125 -0.1875 0.46875 -0.59375q0.109375 -0.296875 0.109375 -1.09375l0 -1.3125q-1.0625 1.453125 -2.6875 1.453125q-1.8125 0 -2.859375 -1.53125q-0.84375 -1.203125 -0.84375 -3.015625q0 -2.25 1.09375 -3.4375q1.09375 -1.203125 2.703125 -1.203125q1.671875 0 2.75 1.46875l0 -1.265625l2.21875 0l0 8.0625q0 1.59375 -0.265625 2.375q-0.25 0.78125 -0.734375 1.234375q-0.46875 0.453125 -1.265625 0.703125q-0.78125 0.25 -1.984375 0.25q-2.296875 0 -3.25 -0.78125q-0.953125 -0.78125 -0.953125 -1.984375q0 -0.109375 0.015625 -0.28125zm2.109375 -5.265625q0 1.421875 0.546875 2.09375q0.5625 0.65625 1.375 0.65625q0.875 0 1.46875 -0.671875q0.609375 -0.6875 0.609375 -2.03125q0 -1.390625 -0.578125 -2.0625q-0.578125 -0.6875 -1.453125 -0.6875q-0.859375 0 -1.421875 0.671875q-0.546875 0.65625 -0.546875 2.03125zm13.897217 1.8125l2.359375 0.390625q-0.453125 1.3125 -1.4375 2.0q-0.984375 0.671875 -2.46875 0.671875q-2.34375 0 -3.46875 -1.53125q-0.890625 -1.234375 -0.890625 -3.09375q0 -2.234375 1.171875 -3.5q1.171875 -1.265625 2.953125 -1.265625q2.0 0 3.15625 1.328125q1.171875 1.3125 1.109375 4.046875l-5.953125 0q0.03125 1.0625 0.578125 1.65625q0.546875 0.578125 1.375 0.578125q0.546875 0 0.921875 -0.296875q0.390625 -0.3125 0.59375 -0.984375zm0.125 -2.40625q-0.015625 -1.03125 -0.53125 -1.5625q-0.5 -0.546875 -1.234375 -0.546875q-0.78125 0 -1.28125 0.578125q-0.515625 0.5625 -0.5 1.53125l3.546875 0zm12.480835 5.265625l-2.375 0l0 -4.578125q0 -1.46875 -0.15625 -1.890625q-0.15625 -0.421875 -0.5 -0.65625q-0.34375 -0.25 -0.828125 -0.25q-0.609375 0 -1.109375 0.34375q-0.484375 0.34375 -0.671875 0.90625q-0.171875 0.546875 -0.171875 2.0625l0 4.0625l-2.375 0l0 -8.984375l2.203125 0l0 1.3125q1.171875 -1.515625 2.953125 -1.515625q0.796875 0 1.4375 0.28125q0.65625 0.28125 0.984375 0.734375q0.34375 0.4375 0.46875 1.0q0.140625 0.546875 0.140625 1.59375l0 5.578125zm10.240967 -6.328125l-2.34375 0.421875q-0.125 -0.703125 -0.546875 -1.046875q-0.40625 -0.359375 -1.078125 -0.359375q-0.890625 0 -1.421875 0.609375q-0.515625 0.609375 -0.515625 2.046875q0 1.609375 0.53125 2.265625q0.53125 0.65625 1.4375 0.65625q0.6875 0 1.109375 -0.375q0.4375 -0.390625 0.609375 -1.328125l2.34375 0.390625q-0.375 1.609375 -1.40625 2.4375q-1.03125 0.8125 -2.765625 0.8125q-1.96875 0 -3.140625 -1.234375q-1.171875 -1.25 -1.171875 -3.453125q0 -2.21875 1.171875 -3.453125q1.1875 -1.25 3.1875 -1.25q1.640625 0 2.609375 0.703125q0.96875 0.703125 1.390625 2.15625zm7.012085 3.46875l2.359375 0.390625q-0.453125 1.3125 -1.4375 2.0q-0.984375 0.671875 -2.46875 0.671875q-2.34375 0 -3.46875 -1.53125q-0.890625 -1.234375 -0.890625 -3.09375q0 -2.234375 1.171875 -3.5q1.171875 -1.265625 2.953125 -1.265625q2.0 0 3.15625 1.328125q1.171875 1.3125 1.109375 4.046875l-5.953125 0q0.03125 1.0625 0.578125 1.65625q0.546875 0.578125 1.375 0.578125q0.546875 0 0.921875 -0.296875q0.390625 -0.3125 0.59375 -0.984375zm0.125 -2.40625q-0.015625 -1.03125 -0.53125 -1.5625q-0.5 -0.546875 -1.234375 -0.546875q-0.78125 0 -1.28125 0.578125q-0.515625 0.5625 -0.5 1.53125l3.546875 0z" fill-rule="nonzero"/></g><g filter="url(#shadowFilter-p.9)"><use xlink:href="#p.9" transform="matrix(1.0 0.0 0.0 1.0 0.0 2.0)"/></g><defs><filter id="shadowFilter-p.9" filterUnits="userSpaceOnUse"><feGaussianBlur in="SourceAlpha" stdDeviation="2.0" result="blur"/><feComponentTransfer in="blur" color-interpolation-filters="sRGB"><feFuncR type="linear" slope="0" intercept="0.0"/><feFuncG type="linear" slope="0" intercept="0.0"/><feFuncB type="linear" slope="0" intercept="0.0"/><feFuncA type="linear" slope="0.5" intercept="0"/></feComponentTransfer></filter></defs><g id="p.9"><path fill="#000000" fill-opacity="0.0" d="m125.3392 84.08137l0 18.582672" fill-rule="evenodd"/><path stroke="#000000" stroke-width="2.0" stroke-linejoin="round" stroke-linecap="butt" d="m125.33921 84.08137l0 6.582672" fill-rule="evenodd"/><path fill="#000000" stroke="#000000" stroke-width="2.0" stroke-linecap="butt" d="m122.03574 90.66404l3.3034668 9.076195l3.3034592 -9.076195z" fill-rule="evenodd"/></g><g filter="url(#shadowFilter-p.10)"><use xlink:href="#p.10" transform="matrix(1.0 0.0 0.0 1.0 0.0 2.0)"/></g><defs><filter id="shadowFilter-p.10" filterUnits="userSpaceOnUse"><feGaussianBlur in="SourceAlpha" stdDeviation="2.0" result="blur"/><feComponentTransfer in="blur" color-interpolation-filters="sRGB"><feFuncR type="linear" slope="0" intercept="0.0"/><feFuncG type="linear" slope="0" intercept="0.0"/><feFuncB type="linear" slope="0" intercept="0.0"/><feFuncA type="linear" slope="0.5" intercept="0"/></feComponentTransfer></filter></defs><g id="p.10"><path fill="#000000" fill-opacity="0.0" d="m125.3392 143.0827l0 19.496063" fill-rule="evenodd"/><path stroke="#000000" stroke-width="2.0" stroke-linejoin="round" stroke-linecap="butt" d="m125.33921 143.0827l0 7.496063" fill-rule="evenodd"/><path fill="#000000" stroke="#000000" stroke-width="2.0" stroke-linecap="butt" d="m122.03574 150.57877l3.3034668 9.076187l3.3034592 -9.076187z" fill-rule="evenodd"/></g><g filter="url(#shadowFilter-p.11)"><use xlink:href="#p.11" transform="matrix(1.0 0.0 0.0 1.0 0.0 2.0)"/></g><defs><filter id="shadowFilter-p.11" filterUnits="userSpaceOnUse"><feGaussianBlur in="SourceAlpha" stdDeviation="2.0" result="blur"/><feComponentTransfer in="blur" color-interpolation-filters="sRGB"><feFuncR type="linear" slope="0" intercept="0.0"/><feFuncG type="linear" slope="0" intercept="0.0"/><feFuncB type="linear" slope="0" intercept="0.0"/><feFuncA type="linear" slope="0.5" intercept="0"/></feComponentTransfer></filter></defs><g id="p.11"><path fill="#000000" fill-opacity="0.0" d="m125.3392 203.0035l0 19.937012" fill-rule="evenodd"/><path stroke="#000000" stroke-width="2.0" stroke-linejoin="round" stroke-linecap="butt" d="m125.33921 203.00351l0 7.9370117" fill-rule="evenodd"/><path fill="#000000" stroke="#000000" stroke-width="2.0" stroke-linecap="butt" d="m122.03574 210.94052l3.3034668 9.076187l3.3034592 -9.076187z" fill-rule="evenodd"/></g><g filter="url(#shadowFilter-p.12)"><use xlink:href="#p.12" transform="matrix(1.0 0.0 0.0 1.0 0.0 2.0)"/></g><defs><filter id="shadowFilter-p.12" filterUnits="userSpaceOnUse"><feGaussianBlur in="SourceAlpha" stdDeviation="2.0" result="blur"/><feComponentTransfer in="blur" color-interpolation-filters="sRGB"><feFuncR type="linear" slope="0" intercept="0.0"/><feFuncG type="linear" slope="0" intercept="0.0"/><feFuncB type="linear" slope="0" intercept="0.0"/><feFuncA type="linear" slope="0.5" intercept="0"/></feComponentTransfer></filter></defs><g id="p.12"><path fill="#000000" fill-opacity="0.0" d="m125.3392 263.33905l0 18.897644" fill-rule="evenodd"/><path stroke="#000000" stroke-width="2.0" stroke-linejoin="round" stroke-linecap="butt" d="m125.33921 263.33905l0 6.897644" fill-rule="evenodd"/><path fill="#000000" stroke="#000000" stroke-width="2.0" stroke-linecap="butt" d="m122.03574 270.2367l3.3034668 9.076202l3.3034592 -9.076202z" fill-rule="evenodd"/></g><g filter="url(#shadowFilter-p.13)"><use xlink:href="#p.13" transform="matrix(1.0 0.0 0.0 1.0 0.0 2.0)"/></g><defs><filter id="shadowFilter-p.13" filterUnits="userSpaceOnUse"><feGaussianBlur in="SourceAlpha" stdDeviation="2.0" result="blur"/><feComponentTransfer in="blur" color-interpolation-filters="sRGB"><feFuncR type="linear" slope="0" intercept="0.0"/><feFuncG type="linear" slope="0" intercept="0.0"/><feFuncB type="linear" slope="0" intercept="0.0"/><feFuncA type="linear" slope="0.5" intercept="0"/></feComponentTransfer></filter></defs><g id="p.13"><path fill="#000000" fill-opacity="0.0" d="m125.3392 322.64954l0 20.566925" fill-rule="evenodd"/><path stroke="#000000" stroke-width="2.0" stroke-linejoin="round" stroke-linecap="butt" d="m125.33921 322.64954l0 8.566925" fill-rule="evenodd"/><path fill="#000000" stroke="#000000" stroke-width="2.0" stroke-linecap="butt" d="m122.03574 331.21646l3.3034668 9.076202l3.3034592 -9.076202z" fill-rule="evenodd"/></g><g filter="url(#shadowFilter-p.14)"><use xlink:href="#p.14" transform="matrix(1.0 0.0 0.0 1.0 0.0 2.0)"/></g><defs><filter id="shadowFilter-p.14" filterUnits="userSpaceOnUse"><feGaussianBlur in="SourceAlpha" stdDeviation="2.0" result="blur"/><feComponentTransfer in="blur" color-interpolation-filters="sRGB"><feFuncR type="linear" slope="0" intercept="0.0"/><feFuncG type="linear" slope="0" intercept="0.0"/><feFuncB type="linear" slope="0" intercept="0.0"/><feFuncA type="linear" slope="0.5" intercept="0"/></feComponentTransfer></filter></defs><g id="p.14"><path fill="#000000" fill-opacity="0.0" d="m125.3392 383.63626l0 20.850403" fill-rule="evenodd"/><path stroke="#000000" stroke-width="2.0" stroke-linejoin="round" stroke-linecap="butt" d="m125.33921 383.6363l0 8.850372" fill-rule="evenodd"/><path fill="#000000" stroke="#000000" stroke-width="2.0" stroke-linecap="butt" d="m122.03574 392.48666l3.3034668 9.076202l3.3034592 -9.076202z" fill-rule="evenodd"/></g><g filter="url(#shadowFilter-p.15)"><use xlink:href="#p.15" transform="matrix(1.0 0.0 0.0 1.0 0.0 2.0)"/></g><defs><filter id="shadowFilter-p.15" filterUnits="userSpaceOnUse"><feGaussianBlur in="SourceAlpha" stdDeviation="2.0" result="blur"/><feComponentTransfer in="blur" color-interpolation-filters="sRGB"><feFuncR type="linear" slope="0" intercept="0.0"/><feFuncG type="linear" slope="0" intercept="0.0"/><feFuncB type="linear" slope="0" intercept="0.0"/><feFuncA type="linear" slope="0.5" intercept="0"/></feComponentTransfer></filter></defs><g id="p.15"><path fill="#000000" fill-opacity="0.0" d="m125.3392 444.89062l0 21.322845" fill-rule="evenodd"/><path stroke="#000000" stroke-width="2.0" stroke-linejoin="round" stroke-linecap="butt" d="m125.33921 444.89062l0 9.322845" fill-rule="evenodd"/><path fill="#000000" stroke="#000000" stroke-width="2.0" stroke-linecap="butt" d="m122.03574 454.21347l3.3034668 9.076172l3.3034592 -9.076172z" fill-rule="evenodd"/></g></g></svg>